<?xml version="1.0" encoding="UTF-8" standalone="no"?>
<!-- Created with Inkscape (http://www.inkscape.org/) -->

<svg
   xmlns:dc="http://purl.org/dc/elements/1.1/"
   xmlns:cc="http://creativecommons.org/ns#"
   xmlns:rdf="http://www.w3.org/1999/02/22-rdf-syntax-ns#"
   xmlns:svg="http://www.w3.org/2000/svg"
   xmlns="http://www.w3.org/2000/svg"
   xmlns:sodipodi="http://sodipodi.sourceforge.net/DTD/sodipodi-0.dtd"
   xmlns:inkscape="http://www.inkscape.org/namespaces/inkscape"
   id="svg3336"
   version="1.1"
   inkscape:version="0.91 r13725"
   width="1625"
   height="1625"
   viewBox="0 0 1625 1625"
   sodipodi:docname="ATXL Logo Final HighRes.svg">
  <metadata
     id="metadata3342">
    <rdf:RDF>
      <cc:Work
         rdf:about="">
        <dc:format>image/svg+xml</dc:format>
        <dc:type
           rdf:resource="http://purl.org/dc/dcmitype/StillImage" />
        <dc:title></dc:title>
      </cc:Work>
    </rdf:RDF>
  </metadata>
  <defs
     id="defs3340" />
  <sodipodi:namedview
     pagecolor="#ffffff"
     bordercolor="#666666"
     borderopacity="1"
     objecttolerance="10"
     gridtolerance="10"
     guidetolerance="10"
     inkscape:pageopacity="0"
     inkscape:pageshadow="2"
     inkscape:window-width="1366"
     inkscape:window-height="706"
     id="namedview3338"
     showgrid="false"
     inkscape:zoom="0.23454188"
     inkscape:cx="643.82442"
     inkscape:cy="727.99603"
     inkscape:window-x="-8"
     inkscape:window-y="-8"
     inkscape:window-maximized="1"
     inkscape:current-layer="svg3336" />
  <path
     style="fill:#a574c3;fill-opacity:1"
     d="m 1058.1973,1411.8524 c -7.3558,-7.6925 -17.3747,-16.0689 -21.4299,-17.9166 -2.396,-1.0916 -4.2151,-1.1048 -7.2348,-0.053 -6.2436,2.1765 -8.7137,1.7755 -22.3434,-3.6271 -12.18473,-4.83 -15.94653,-5.3104 -14.62543,-1.8675 1.2609,3.2858 -1.689,3.9593 -10.7795,2.4615 -11.2771,-1.8583 -11.6566,-2.0214 -23.9395,-10.2925 -11.0082,-7.4129 -26.33458,-13.7399 -36.66874,-15.1379 -5.21662,-0.7056 -7.53492,-1.8283 -11.25,-5.4479 -6.78357,-6.6091 -14.2631,-9.444 -28.32815,-10.737 -7.53593,-0.6927 -12.77148,-1.7785 -13.71894,-2.8452 -3.40748,-3.8367 -12.06668,-24.8127 -13.87057,-33.6002 -3.51325,-17.1145 -5.45872,-21.1436 -15.08901,-31.25 -10.07534,-10.5733 -13.59717,-16.3905 -12.52045,-20.6805 0.78086,-3.1112 -1.47528,-13.863 -4.84083,-23.0695 -4.09033,-11.1891 -4.54428,-15.6297 -2.49922,-24.4478 2.71979,-11.7275 1.38426,-15.0417 -9.20133,-22.8332 -4.59847,-3.3846 -10.04836,-7.0311 -12.11086,-8.1032 -6.75925,-3.5135 -16.7812,-13.408 -22.43792,-22.1524 -3.05418,-4.7213 -8.11873,-11.7341 -11.25457,-15.5841 -3.13583,-3.8499 -7.09197,-9.7438 -8.79141,-13.0975 -1.69945,-3.3537 -5.40664,-7.9672 -8.23821,-10.2522 -11.93936,-9.6348 -13.69571,-11.5086 -16.56903,-17.6772 -1.65941,-3.5626 -4.78546,-12.029 -6.94677,-18.8143 -2.16131,-6.7853 -4.94909,-13.8166 -6.19504,-15.625 -1.24596,-1.8084 -3.52524,-6.6631 -5.06504,-10.7881 -6.88993,-18.4574 -8.40113,-21.8864 -14.25776,-32.3509 -3.41702,-6.1055 -9.31165,-15.3868 -13.09914,-20.625 -3.7875,-5.2382 -8.7647,-13.54803 -11.06045,-18.46612 -3.54517,-7.5948 -6.15961,-10.7966 -17.3519,-21.25 -9.09533,-8.495 -15.20002,-13.1397 -19.70528,-14.9928 -3.59012,-1.4766 -9.15483,-4.99859 -12.36604,-7.82669 -5.50771,-4.8496 -12.28644,-14.8789 -12.28644,-18.1772 0,-2.3132 -4.89464,-6.3867 -13.13196,-10.9287 l -7.49304,-4.1317 -32.75651,0.438 -32.75653,0.4381 -7.75564,-3.8756 c -4.26559,-2.13151 -8.75888,-3.8755 -9.9851,-3.8755 -2.55845,0 -6.12122,4.5104 -6.12122,7.7493 0,4.4921 -5.27401,6.1624 -20.51626,6.4979 -15.90197,0.3499 -18.6204,1.4764 -20.12809,8.3409 -0.43233,1.9684 -2.01635,5.4257 -3.52005,7.6829 -4.22809,6.3468 -5.53661,9.984 -6.46697,17.97549 -0.47244,4.0582 -2.49241,12.2265 -4.48881,18.1519 -1.9964,5.9253 -3.62982,11.9222 -3.62982,13.3263 0,2.7294 -6.1135,8.55999 -10.87244,10.36939 -1.5886,0.604 -4.71405,3.7239 -6.94546,6.9331 -7.89794,11.35903 -6.80508,10.69053 -22.61918,13.83493 -3.6276,0.7212 -11.17346,-2.5638 -16.43792,-7.1561 -3.77081,-3.2894 -29.21155,-17.63232 -35.62246,-20.08312 -3.09515,-1.1832 -10.01125,-4.3997 -15.36912,-7.1476 -5.35786,-2.748 -15.35641,-7.3656 -22.21901,-10.2614 -9.65425,-4.0738 -13.4602,-6.4133 -16.82092,-10.3395 -2.38891,-2.7909 -4.34349,-5.6975 -4.34349,-6.4591 0,-3.54029 -7.1729,-9.67559 -13.75,-11.76099 -6.43235,-2.0396 -7.31765,-2.8314 -13.75,-12.2986 -3.78125,-5.5653 -9.48335,-13.5182 -12.67132,-17.6732 -10.01268,-13.04993 -12.42361,-24.14741 -11.03788,-50.8075 0.44573,-8.57543 0.31269,-9.02199 -6.668,-22.38236 -3.91754,-7.49782 -7.12101,-14.81032 -7.11884,-16.25 0.002,-1.4397 -1.19928,-6.67729 -2.66991,-11.63909 -2.41194,-8.13773 -3.48596,-9.79079 -10.96401,-16.875 -8.54428,-8.0943 -23.22939,-20.98199 -38.85988,-34.10355 -4.91373,-4.125 -12.84293,-12.41908 -17.62045,-18.43129 -7.11342,-8.95181 -10.08703,-11.63833 -16.42113,-14.83577 -4.66643,-2.3556 -10.73151,-6.9974 -15.28915,-11.70125 -4.15494,-4.28823 -9.52318,-8.78984 -11.92943,-10.00356 -10.13812,-5.11378 -22.517947,-13.57018 -25.305937,-17.28599 -1.64743,-2.19568 -3.96671,-6.4608 -5.15396,-9.47806 -1.942,-4.93537 -3.64374,-7.61157 -12.7907,-20.11504 -7.45232,-10.18698 -17.15469,-19.91441 -20.62285,-20.67615 -5.49045,-1.2059 -7.57734,-5.2792 -7.12997,-13.91659 l 0.37842,-7.3063 14.375,-0.38815 c 19.42597,-0.52454 76.490967,1.64566 273.111687,10.38652 52.93018,2.35303 96.58895,3.8785 97.01948,3.38994 0.74937,-0.85037 2.78203,-49.13306 4.29994,-102.13831 0.95083,-33.20254 3.29172,-91.10526 9.34898,-231.25 2.76347,-63.9375 6.04472,-139.9197 7.29168,-168.84934 1.24695,-28.929617 2.72443,-53.339149 3.28328,-54.243369 0.83475,-1.35067 20.78045,-1.46968 111.76801,-0.66686 60.91357,0.53744 130.15819,1.32197 153.87694,1.74337 l 43.125,0.7662 0.78846,13.75 c 0.43366,7.562502 0.95833,55.656249 1.16592,106.874999 0.42532,104.9343 0.51042,107.5614 3.50992,108.34579 1.14982,0.30068 5.16185,4.47417 8.9156,9.27441 7.76111,9.9248 11.17962,11.5514 15.58296,7.41469 3.64303,-3.42245 6.60293,-2.68704 13.2101,3.28215 6.25613,5.65204 11.95831,6.59426 18.68589,3.08765 2.80122,-1.46008 6.67891,-2.65469 8.6171,-2.65469 6.17836,0 18.89905,11.05111 18.89905,16.41858 0,4.55097 4.46724,7.33142 11.77909,7.33142 5.4187,0 7.52908,0.63107 10.51641,3.14475 5.17736,4.35645 21.74621,7.34965 26.70492,4.82429 1.85649,-0.94548 4.17712,-1.71904 5.15697,-1.71904 2.84755,0 15.15799,5.79392 16.9832,7.99316 1.8117,2.18298 7.0229,2.71712 8.18375,0.83883 1.42414,-2.30432 14.01686,-4.9048 25.67566,-5.30221 l 11.875,-0.40478 -0.4019,6.5625 -0.4019,6.5625 4.5466,0 c 4.5695,0 9.3101,1.80464 10.8178,4.11806 0.4458,0.68409 -0.081,3.64994 -1.1712,6.59078 -1.6425,4.43173 -1.7015,5.68454 -0.345,7.31906 2.6724,3.22004 9.4494,2.44675 14.0996,-1.60884 4.7679,-4.15825 17.29903,-11.41906 19.70753,-11.41906 3.4789,0 15.1876,6.73186 18.7341,10.77109 2.0422,2.3259 4.1213,4.22891 4.6203,4.22891 0.499,0 2.4374,-1.46592 4.3075,-3.25762 2.7209,-2.60674 4.7326,-3.29357 10.0684,-3.4375 l 6.6682,-0.17988 0.3738,7.87525 c 0.4253,8.9602 1.7694,10.22748 8.077,7.61481 4.8861,-2.02388 13.4242,-9.52657 13.4242,-11.79622 0,-0.90215 0.8548,-2.49508 1.8996,-3.53985 1.6994,-1.69944 2.7201,-1.5114 9.6875,1.78472 4.2833,2.02638 8.4479,3.68476 9.2545,3.6853 0.8066,5.4e-4 3.1378,-1.40526 5.1804,-3.12401 2.0427,-1.71875 5.1223,-3.125 6.8436,-3.125 3.6808,0 10.9472,6.93674 15.0583,14.375 2.3531,4.25756 3.4519,5.05744 7.4004,5.3868 5.4013,0.45056 24.1475,-4.01761 31.9148,-7.6069 3.0369,-1.40334 6.1493,-3.99703 7.1738,-5.97825 2.2291,-4.31054 3.0182,-4.55701 19.5206,-6.09691 13.5491,-1.26433 24.3965,-4.43097 28.786,-8.40337 2.3359,-2.11392 2.9113,-2.08398 13.6136,0.70825 12.6322,3.29572 13.8597,3.0829 25.8787,-4.48642 6.9687,-4.38873 12.4121,-5.33275 13.5563,-2.35099 0.3793,0.98847 4.4439,4.53639 9.0324,7.88429 7.207,5.25836 10.4688,6.6485 23.9586,10.21081 16.8383,4.44654 19.1799,5.36367 23.3268,9.13632 1.491,1.35641 7.3959,5.22362 13.1221,8.59378 9.095,5.35288 12.8216,6.79488 16.2812,6.30002 11.9785,-1.71337 30.2355,-2.58451 31.5365,-1.50478 0.9827,0.81547 1.8919,6.0108 2.3654,13.516 1.0878,17.23972 6.7537,88.27119 8.9989,112.81635 1.0376,11.34375 2.2385,30.1875 2.6688,41.875 0.4603,12.50315 1.3552,21.98103 2.1742,23.02599 0.7656,0.9768 3.8551,3.34357 6.8656,5.25951 3.0105,1.91594 6.7933,5.42548 8.4061,7.79899 3.1646,4.65699 10.5037,25.50555 14.2357,40.43944 1.2707,5.0855 4.5248,13.01055 7.2309,17.61122 19.2749,32.76923 21.2829,37.91663 24.0613,61.68081 1.2211,10.44525 1.2352,15.87004 0.066,25.16314 -0.9311,7.39685 -1.3904,26.34214 -1.2231,50.43404 0.3334,47.97496 -0.2483,51.03975 -13.2068,69.57711 -7.5157,10.75109 -8.5209,13.68244 -6.8372,19.93571 1.6833,6.25093 1.3529,6.49742 -11.2034,8.35894 -13.6228,2.0196 -26.4954,8.9257 -40.0119,21.4659 -7.35,6.8192 -13.5701,11.3098 -19.7031,14.2245 -6.4937,3.0861 -12.6037,7.6147 -22.1804,16.43949 -7.2698,6.699 -14.7613,14.4072 -16.6478,17.1294 -1.8865,2.7222 -7.3741,8.0699 -12.1947,11.8838 -4.8206,3.8139 -12.7023,10.63299 -17.5148,15.15372 -4.8125,4.5206 -11.5625,10.5126 -15,13.3155 -6.1277,4.9966 -23.7266,16.7278 -25.0946,16.7278 -1.0421,0 -19.8164,11.2371 -31.0032,18.5566 -5.4164,3.5439 -10.392,6.4434 -11.057,6.4434 -0.6652,0 -2.7951,1.1292 -4.7333,2.5093 -1.9381,1.3801 -6.2437,2.8806 -9.5679,3.3344 -6.5797,0.8982 -12.221,5.548 -14.4398,11.902 -1.2718,3.6418 -9.8373,9.6705 -17.5998,12.3875 -4.6981,1.6444 -9.214,5.6926 -20.2937,18.1919 -3.6411,4.1076 -8.6297,7.8983 -13.7361,10.4375 -8.3538,4.1542 -16.2811,11.2481 -18.614,16.6574 -0.7483,1.735 -5.5178,6.1472 -10.5989,9.8048 -8.2687,5.9522 -9.8805,7.831 -15.3578,17.9002 -8.9214,16.3999 -19.7795,40.1823 -19.7795,43.3216 0,1.0299 -1.3836,5.2774 -3.0746,9.439 -1.691,4.1617 -4.4844,13.8122 -6.2076,21.4455 -1.7231,7.6334 -4.0584,15.6687 -5.1896,17.856 -1.3789,2.6667 -1.836,5.6595 -1.3872,9.0825 1.6448,12.5438 4.9591,24.5243 9.0199,32.6054 4.3175,8.592 5.3878,13.1773 8.0065,34.3001 0.7193,5.8027 1.8759,11.1183 2.5702,11.8125 2.4094,2.4094 1.4305,9.6949 -1.6913,12.5882 -2.0938,1.9403 -3.2024,4.7283 -3.8082,9.5768 -0.47,3.7618 -0.5941,7.6569 -0.2757,8.6559 0.3183,0.9991 0.8848,3.2319 1.2587,4.9619 0.4079,1.8869 4.183,6.0634 9.4351,10.4384 9.2283,7.6871 11.4744,11.2861 8.6598,13.876 -2.0622,1.8976 -15.5577,5.6652 -20.2927,5.6652 -5.0569,0 -8.2733,2.1691 -8.2733,5.5798 0,3.1977 -2.9385,6.9202 -5.4627,6.9202 -0.8438,0 -4.0891,-2.6719 -7.2117,-5.9375 z m -4.8179,-55.625 c 0,-8.9214 0.5748,-13.8999 1.875,-16.3929 3.675,-7.0463 1.1269,-23.584 -5.3225,-34.5446 -5.0636,-8.6054 -7.9698,-23.1729 -8.6759,-43.4884 -0.5128,-14.7522 -0.2704,-18.602 1.3915,-22.1041 1.1068,-2.3325 3.4243,-10.4956 5.15,-18.1402 1.7257,-7.6447 4.4367,-17.3853 6.0244,-21.6459 1.5878,-4.2605 3.7645,-10.2776 4.8371,-13.3714 3.8324,-11.0535 9.5167,-23.335 17.0412,-36.8194 7.0625,-12.6565 9.2297,-15.2668 28.5941,-34.4408 14.4382,-14.2963 22.8707,-21.6701 27.1224,-23.7172 3.8582,-1.8577 10.415,-7.3045 17.5,-14.5374 7.6525,-7.8125 13.4359,-12.5415 17.8181,-14.5697 4.3677,-2.0215 9.4311,-6.1543 15.4933,-12.6456 9.8892,-10.5893 13.9286,-13.2558 20.144,-13.2977 2.2686,-0.015 5.5309,-1.1278 7.2496,-2.4722 1.7188,-1.3444 3.756,-2.4569 4.5271,-2.4722 0.7711,-0.015 5.8336,-2.9273 11.25,-6.4712 11.1869,-7.3195 29.9611,-18.5566 31.0033,-18.5566 1.4457,0 18.5863,-11.51973 25.4427,-17.09932 9.2666,-7.541 24.5309,-21.753 50.9019,-47.39279 18.09,-17.5884 22.629,-21.3281 30.5235,-25.148 6.1902,-2.9954 13.0751,-7.9208 20.7077,-14.81441 10.6353,-9.60546 28.2177,-20.53566 33.0454,-20.54284 2.2188,-0.004 6.3484,-3.64525 6.3484,-5.59881 0,-0.80228 2.8479,-5.59271 6.3286,-10.64543 13.5966,-19.73681 13.5002,-19.16327 13.7687,-81.88341 0.192,-44.81374 -0.049,-52.26391 -1.9158,-59.32344 -1.9379,-7.32746 -9.6309,-22.51291 -22.0339,-43.49331 -2.5415,-4.29921 -4.9847,-9.92421 -5.4292,-12.5 -0.4445,-2.57579 -3.1235,-11.99575 -5.9534,-20.93325 l -5.145,-16.25 -10.2886,-10.625 -10.2885,-10.625 -0.793,-21.875 c -0.4361,-12.03125 -1.6096,-30.59375 -2.6078,-41.25 -0.998,-10.65625 -3.2736,-38.78125 -5.0568,-62.5 -1.7832,-23.71875 -3.7573,-44.39063 -4.3869,-45.9375 -1.0603,-2.60469 -1.9258,-2.8125 -11.7153,-2.8125 -5.8136,0 -12.1538,-0.59332 -14.0892,-1.3185 -4.8815,-1.82906 -20.3625,-11.04636 -24.1439,-14.3751 -4.6715,-4.1123 -6.7339,-4.92654 -23.75,-9.37658 -11.2559,-2.94361 -16.9467,-5.11606 -20.3517,-7.76913 -3.9107,-3.047 -5.4214,-3.52963 -8.75,-2.79513 -2.2128,0.48829 -12.1795,1.28383 -22.1483,1.76788 -9.9687,0.48405 -19.7706,1.57566 -21.782,2.42582 -2.0112,0.85016 -9.5649,2.10553 -16.7856,2.78969 -12.8921,1.22155 -13.226,1.33379 -18.5401,6.23209 -6.226,5.7389 -8.2099,6.64372 -23.4513,10.69567 -9.2191,2.45091 -14.2315,2.97329 -28.5303,2.97329 l -17.3463,0 -7.2077,-6.875 c -6.7623,-6.45009 -7.5929,-6.875 -13.4393,-6.875 -5.0982,0 -6.7828,0.59053 -9.262,3.24665 -6.1413,6.57959 -10.9806,8.00335 -27.2025,8.00335 -11.7166,0 -15.229,-0.40027 -16.4529,-1.875 -1.1508,-1.38666 -4.2157,-1.875 -11.7678,-1.875 l -10.2117,0 -5.5205,-5.625 c -6.2023,-6.31969 -7.6308,-6.68683 -12.1589,-3.125 -2.8105,2.21077 -5.07103,2.5 -19.53853,2.5 l -16.3603,0 -7.8462,-7.77639 c -4.3153,-4.27701 -7.8461,-8.67177 -7.8461,-9.76614 0,-1.09436 -1.7188,-3.63643 -3.8195,-5.64905 l -3.8195,-3.6593 -17.41551,0.42417 c -17.21244,0.41921 -17.46055,0.38627 -21.27641,-2.82457 -3.41609,-2.87445 -4.96593,-3.25137 -13.45249,-3.27176 -14.50055,-0.0349 -29.71308,-3.08105 -34.18727,-6.84584 -3.00095,-2.52512 -5.07487,-3.13112 -10.71574,-3.13112 l -6.99462,0 -8.84697,-9.03348 -8.84699,-9.03347 -13.9319,-0.65403 c -10.86554,-0.51007 -14.46376,-1.13548 -16.34843,-2.84152 -1.79695,-1.62665 -4.57049,-2.1875 -10.81767,-2.1875 -4.94483,0 -9.78984,-0.74446 -11.77658,-1.80954 -1.85648,-0.99525 -10.12542,-8.61945 -18.37542,-16.94266 l -15,-15.13314 -0.625,-106.74579 c -0.41285,-70.51112 -1.06056,-107.181017 -1.90816,-108.027977 -1.53265,-1.53152 -258.04119,-4.43063 -259.42963,-2.93213 -0.4924,0.53143 -1.8094,22.622487 -2.92666,49.091237 -1.11727,26.46875 -4.27013,99.875 -7.00634,163.125 -5.98886,138.43763 -8.34515,196.72319 -9.2981,230 -0.39375,13.75 -1.342,42.15625 -2.10721,63.125 l -1.39129,38.125 -6.98967,7.1875 -6.98968,7.1875 -11.28914,6.6e-4 c -10.11131,6e-4 -169.87217,-6.68318 -283.16412,-11.8465 -23.71875,-1.08099 -44.671877,-1.95165 -46.562497,-1.9348 -4.72956,0.0421 -4.43171,2.84672 0.97289,9.16077 2.425707,2.83389 6.022517,8.54832 7.992927,12.69871 3.0791,6.48573 4.61113,8.1458 10.90212,11.81326 4.02576,2.3469 8.72582,5.11446 10.44457,6.15015 1.71875,1.03567 6.78124,5.37755 11.24999,9.64861 4.46875,4.27106 11.17092,9.29438 14.89371,11.16292 7.1248,3.57605 19.6642,15.54613 28.2529,26.97012 2.76188,3.67364 8.94938,9.67538 13.75,13.3372 4.80061,3.66181 18.05326,15.59163 29.45034,26.51068 l 20.72195,19.85282 2.71951,9.1752 c 1.49573,5.04636 2.71773,10.35314 2.71555,11.79284 -0.002,1.43968 3.23041,8.75218 7.18354,16.25 l 7.1875,13.63236 0.23152,18.7285 c 0.3062,24.76965 2.31692,32.15827 11.5255,42.35195 2.56849,2.84325 5.95134,7.29455 7.51744,9.89185 1.73651,2.8799 4.62815,5.4615 7.4115,6.6168 4.97306,2.0644 18.86894,15.0735 22.75404,21.3021 1.58561,2.542 4.48711,4.6597 8.36856,6.1077 3.26779,1.2191 12.12894,5.2794 19.69144,9.02299 7.5625,3.7435 15.89159,7.5908 18.5091,8.5496 5.23655,1.918 26.25317,13.4929 33.73391,18.5788 2.60865,1.7736 5.43876,3.2247 6.28913,3.2247 0.85036,0 4.71,-3.2344 8.57696,-7.1875 6.09289,-6.2287 7.53075,-8.6883 10.7782,-18.4375 2.06104,-6.1875 4.13389,-14.57029 4.60632,-18.62849 0.93037,-7.9915 2.23889,-11.6287 6.46698,-17.9755 1.5037,-2.2572 3.07772,-5.669 3.49785,-7.5818 0.43836,-1.9959 4.48476,-7.17143 9.4961,-12.146 l 8.73225,-8.6682 12.93206,-0.42163 12.93208,-0.42162 6.68182,-6.76588 6.68184,-6.76587 14.61484,0 c 13.50125,0 15.12053,0.26192 21.25152,3.4375 l 6.63668,3.4375 33.79117,0 33.79119,0 7.5,4.11821 c 7.7041,4.23029 25.625,20.79639 25.625,23.68779 0,0.8903 1.34564,3.7503 2.9903,6.3556 2.16465,3.429 4.40377,5.1604 8.10951,6.2707 5.87581,1.7604 19.16703,12.8078 35.47428,29.48529 8.42875,8.6201 12.08563,13.5151 15.88657,21.2651 2.71561,5.537 7.69684,13.7236 11.06938,18.19229 9.24727,12.25303 19.86243,32.17923 24.20707,45.44023 1.38476,4.2266 3.58541,9.7942 4.89033,12.3723 1.30491,2.5781 3.41817,6.7969 4.69616,9.375 1.27797,2.5781 3.93051,10.0313 5.89451,16.5625 3.55526,11.8229 3.62389,11.9298 15.64579,24.375 6.64117,6.875 13.2706,14.8696 14.73206,17.7658 1.46145,2.8962 5.0752,8.2399 8.03054,11.875 2.95535,3.6351 7.75777,10.1262 10.67209,14.4248 2.9143,4.2985 6.82371,8.7392 8.68757,9.8681 16.615,10.0634 33.1858,24.4587 36.07479,31.3387 1.1251,2.6792 1.68905,9.4342 1.68905,20.2311 0,8.9396 0.62276,17.7869 1.38864,19.7276 2.39682,6.0736 4.7705,17.0644 4.81683,22.3033 0.0535,6.0455 1.63272,8.5713 12.48293,19.9656 8.9113,9.3581 10.94626,13.6302 14.37024,30.1686 2.06886,9.9929 5.21977,18.8236 7.7932,21.8413 1.0864,1.2738 4.68271,2.287 9.82135,2.7668 12.05335,1.1255 17.13615,3.0637 25.24731,9.6267 5.58464,4.5187 8.65284,6.08 12.8917,6.5598 8.433,0.9549 24.5303,7.4964 34.2542,13.9202 l 8.6914,5.7416 14.5973,0 c 12.94723,0 15.56783,0.3844 23.18363,3.3999 6.6071,2.6161 11.6117,3.5719 21.7113,4.146 7.2187,0.4105 13.8281,0.8492 14.6875,0.9752 1.1628,0.1704 1.5645,-3.0482 1.5702,-12.5836 z M 908.97561,1221.5058 c -0.43649,-0.7063 -1.32179,-17.7219 -1.96735,-37.8125 -0.64556,-20.0906 -2.28169,-69.7159 -3.63585,-110.2784 -1.35417,-40.5625 -3.06827,-92.55542 -3.80914,-115.53992 -0.74086,-22.98439 -1.88964,-42.80379 -2.55284,-44.04299 -0.66684,-1.246 -1.05115,-10.50304 -0.85979,-20.71007 l 0.34603,-18.45703 14.08594,-0.35366 c 12.03111,-0.30207 14.19907,-0.0589 14.8615,1.66743 0.42656,1.11161 -0.42349,52.45823 -1.88902,114.10362 -1.46552,61.64552 -3.20658,138.43272 -3.86903,170.63842 -0.84677,41.1658 -1.63747,59.0773 -2.66249,60.3125 -1.69465,2.0418 -6.88955,2.347 -8.04796,0.4726 z M 564.50784,853.00524 c -21.64303,-7.19037 -33.88712,-27.75844 -32.04803,-53.83545 1.54293,-21.87796 12.06231,-36.92456 30.73083,-43.95646 10.3017,-3.88036 27.867,-3.06068 37.91872,1.76947 9.16028,4.40179 18.67503,14.71563 22.37005,24.24877 3.39162,8.75037 4.69371,28.56126 2.46022,37.43128 -3.81567,15.15343 -12.85171,26.5339 -25.75991,32.44348 -9.3864,4.29723 -25.81979,5.17203 -35.67188,1.89891 z m 31.96093,-17.4255 c 3.266,-2.29542 6.41939,-6.25089 9.07854,-11.38767 3.7368,-7.21854 4.07436,-8.82695 4.07436,-19.41372 0,-14.05764 -2.1702,-21.09173 -8.84789,-28.67799 -8.36563,-9.50387 -21.35177,-12.09452 -33.02711,-6.5887 -7.61547,3.59129 -10.90355,7.02488 -14.52594,15.1688 -3.3664,7.5684 -4.5575,22.92419 -2.44395,31.50749 1.8551,7.53367 7.8209,16.46793 13.4684,20.16994 8.89311,5.82958 23.31755,5.48125 32.22359,-0.77815 z m 178.1529,18.00135 c -8.9092,-2.60559 -15.42099,-6.44558 -20.54131,-12.11316 -18.46895,-20.44293 -17.29572,-59.12468 2.34232,-77.22638 8.59276,-7.92053 15.39182,-10.48444 29.59017,-11.15833 18.26033,-0.8667 31.51947,3.85653 39.23957,13.97811 3.49359,4.58032 7.32254,15.23386 6.15443,17.1239 -0.37549,0.60756 -3.96484,1.10466 -7.97633,1.10466 l -7.29361,0 -2.94513,-5.9375 c -5.07121,-10.22383 -18.29145,-14.92792 -32.42447,-11.53746 -5.12364,1.22914 -7.97413,2.9344 -12.54395,7.50422 -7.0926,7.0926 -9.85169,14.96116 -9.85169,28.09574 0,16.7474 5.92336,28.811 16.80162,34.21844 11.34439,5.63913 31.63199,2.85172 39.39615,-5.41284 2.2006,-2.34244 2.62358,-4.09741 2.31048,-9.58648 l -0.38325,-6.71912 -11.25,-0.625 -11.25,-0.625 -0.37934,-5.89691 c -0.47589,-7.39793 -0.32618,-7.44477 22.25434,-6.96308 l 16.875,0.35999 0.33839,25.3125 0.33837,25.3125 -5.62706,0 c -4.95972,0 -5.72009,-0.37061 -6.4114,-3.125 -0.99929,-3.98149 -1.68871,-3.93375 -11.26372,0.78001 -6.67295,3.28509 -9.67393,3.97458 -18.9034,4.34315 -6.69342,0.2673 -13.16442,-0.2033 -16.59618,-1.20696 z m 100.625,0.0439 c -12.07737,-3.13177 -19.79693,-8.81137 -23.8723,-17.56384 -3.47706,-7.46751 -3.91666,-13.9031 -1.02546,-15.01255 3.39948,-1.30451 10.36203,-0.82985 11.79002,0.80376 0.7512,0.85938 2.32026,3.49125 3.48679,5.84863 4.98355,10.071 17.9964,15.26162 31.32425,12.49477 9.12484,-1.89426 15.6717,-7.78179 15.6717,-14.09335 0,-8.51028 -5.71491,-11.82259 -30.5,-17.67749 -18.18179,-4.29502 -27.1827,-10.41527 -29.94499,-20.36132 -2.01425,-7.25263 -1.56371,-11.76369 1.86138,-18.63694 5.53339,-11.10406 16.94192,-16.63675 34.3054,-16.63675 5.26595,0 12.397,0.8382 15.84677,1.86267 12.28664,3.64874 21.16384,13.0878 21.97827,23.3693 l 0.32817,4.14303 -7.38791,0 c -7.33015,0 -7.4093,-0.0391 -10.1224,-5 -4.0966,-7.49065 -11.46724,-10.95434 -21.87465,-10.27954 -10.02325,0.64988 -15.7056,3.44899 -18.37793,9.05293 -4.13679,8.67494 1.44604,13.16464 23.23923,18.68892 24.19477,6.13306 31.2655,10.27825 35.71031,20.93504 5.52585,13.24875 -1.91484,29.094 -16.74119,35.65091 -8.47266,3.74701 -25.98371,4.9302 -35.69546,2.41186 z m 233.12503,-0.25604 c -22.0013,-6.13629 -35.2821,-27.6798 -33.4119,-54.19914 1.543,-21.87796 12.0624,-36.92456 30.7309,-43.95646 10.3017,-3.88037 27.867,-3.06068 37.9187,1.76947 9.1048,4.37511 18.3641,14.41064 22.228,24.09135 4.3855,10.98746 5.0122,30.68308 1.324,41.61209 -6.8373,20.26046 -20.9818,31.1511 -41.7203,32.1226 -6.7052,0.3141 -12.5475,-0.17873 -17.0694,-1.43991 z m 24.9945,-14.58975 c 13.3201,-4.9567 21.4426,-23.22894 18.7606,-42.20335 -3.3979,-24.0387 -22.9886,-36.40232 -42.3741,-26.74208 -12.3595,6.15897 -18.3638,19.02166 -17.3729,37.21694 0.6373,11.70094 3.5605,19.36553 9.7446,25.54962 7.9802,7.9802 20.0083,10.35907 31.2418,6.17887 z m -675.36139,13.60765 c -1.11678,-2.91025 -0.96606,-93.88153 0.15839,-95.60269 0.72866,-1.11535 3.39903,-1.51041 8.44942,-1.25 l 7.38405,0.38075 0.625,41.25 0.625,41.25 22.5,0.625 22.5,0.625 0,6.875 0,6.875 -30.7955,0.33402 c -25.00808,0.27125 -30.91782,0.0153 -31.44636,-1.36208 z m 185.96141,0.14945 c -0.34387,-0.8961 -0.47769,-23.0025 -0.29739,-49.12534 l 0.32784,-47.49605 8.19704,-0.36412 c 6.6378,-0.29488 8.55696,0.0617 10.08917,1.875 1.04066,1.23151 11.33,17.00326 22.86518,35.04831 11.53517,18.04506 21.47942,32.49624 22.09833,32.11372 0.6228,-0.38491 1.12528,-16.01207 1.12528,-34.99669 l 0,-34.30122 7.51451,0 7.5145,0 -0.327,49.0625 -0.32701,49.0625 -7.57048,0.36586 c -6.02982,0.29141 -7.96537,-0.0901 -9.51096,-1.875 -1.06727,-1.23247 -11.35335,-17.00649 -22.85794,-35.05336 -11.50458,-18.0469 -21.41888,-32.81252 -22.03176,-32.81252 -0.61767,0 -1.26241,15.46004 -1.44659,34.6875 l -0.33227,34.6875 -7.20263,0.37532 c -5.04945,0.26314 -7.38951,-0.11174 -7.82782,-1.25393 z m 319.74155,-0.0589 c -1.3303,-1.7037 -25.3361,-91.87363 -25.3361,-95.16673 0,-1.55662 1.3638,-2.05478 5.9375,-2.16887 6.0842,-0.15176 9.3882,0.0978 10.0774,0.76101 0.3964,0.38146 12.4641,52.81949 15.1772,65.94959 1.4959,7.23947 3.0549,9.03977 4.3298,5 0.3797,-1.20313 4.6122,-17.32269 9.4055,-35.82126 4.7933,-18.49857 9.2854,-34.204 9.9823,-34.90096 1.6581,-1.65809 15.03313,-1.82776 16.97083,-0.21528 0.8262,0.6875 5.0018,15.03125 9.2792,31.875 9.061,35.68112 10.5549,40.71825 11.9701,40.36035 0.5755,-0.14555 3.9932,-13.3643 7.5949,-29.375 3.6017,-16.01069 7.3355,-32.2041 8.2973,-35.98535 l 1.7488,-6.875 7.2968,-0.38031 c 4.0132,-0.20918 7.7368,0.0721 8.2746,0.625 0.5378,0.55292 -0.9471,8.31781 -3.2998,17.25531 -2.3527,8.9375 -8.0778,30.59375 -12.7225,48.125 l -8.4449,31.875 -8.4547,0.37 c -6.9556,0.3044 -8.5962,9.4e-4 -9.2534,-1.71153 -0.4393,-1.14483 -5.0722,-18.36911 -10.2953,-38.27617 -5.2231,-19.90705 -10.0591,-36.29311 -10.7466,-36.41347 -0.6875,-0.12036 -5.46873,16.37492 -10.62503,36.65617 -5.1562,20.28125 -9.8301,37.57812 -10.3863,38.4375 -0.6181,0.95511 -3.8385,1.5625 -8.2844,1.5625 -4.3345,0 -7.7661,-0.63131 -8.4932,-1.5625 z m 223.05023,0.78204 c -1.463,-1.463 -1.0717,-96.45742 0.4011,-97.36764 2.1852,-1.35054 54.3601,-0.86049 59.6359,0.56012 6.4435,1.73507 12.7238,6.03074 16.0645,10.98786 4.6245,6.86232 5.0995,19.85648 1.0226,27.97707 -1.6109,3.20865 -9.7548,11.10501 -11.4914,11.14219 -0.4917,0.01 -1.6894,0.52259 -2.6614,1.13791 -1.411,0.89316 -0.7521,2.2722 3.2675,6.83879 3.6944,4.19692 6.5782,9.8216 10.83,21.12344 3.1872,8.47187 5.7949,16.0733 5.7949,16.89206 0,2.08121 -15.5361,2.01434 -17.1561,-0.0739 -0.6666,-0.85937 -3.3533,-7.64347 -5.9703,-15.07578 -7.5668,-21.49042 -9.9622,-23.36167 -29.9047,-23.36167 l -13.1554,0 -0.3442,19.6875 -0.3443,19.6875 -7.5512,0.36536 c -4.1533,0.20095 -7.9502,-0.0334 -8.4375,-0.52082 z m 55.3832,-56.55375 c 7.7804,-4.1697 9.5924,-15.55479 3.6731,-23.07983 -3.4078,-4.33236 -12.4702,-6.10442 -28.6926,-5.61055 l -13.125,0.39959 -0.351,15.3125 -0.351,15.3125 17.2455,0 c 14.449,0 17.9518,-0.37852 21.601,-2.33421 z m 45.0833,55.02615 c -1.5368,-2.87148 -1.7954,-92.61823 -0.2738,-94.98355 1.7635,-2.74108 44.3271,-2.04075 53.7243,0.88395 12.4217,3.8661 20.1668,10.61281 25.5342,22.24286 2.4775,5.36804 2.7875,8.05571 2.7875,24.1648 0,16.1066 -0.3102,18.79726 -2.7861,24.16187 -4.2831,9.28029 -9.5326,15.06416 -17.4695,19.24775 -10.1964,5.37464 -17.6466,6.59038 -40.3869,6.59038 -18.0637,0 -20.0082,-0.2124 -21.1297,-2.30806 z m 46.4761,-14.05867 c 6.5754,-1.73121 12.6036,-7.46376 15.9699,-15.18667 2.3657,-5.42755 2.8525,-8.69954 2.7963,-18.79478 -0.06,-10.87313 -0.4628,-13.01308 -3.644,-19.375 -5.8516,-11.70265 -15.2901,-15.75547 -34.9788,-15.01977 l -9.8473,0.36795 -0.3321,34.59208 c -0.3086,32.14825 -0.1761,34.63793 1.875,35.24137 3.1136,0.91601 22.529,-0.34234 28.161,-1.82518 z M 633.05917,726.60072 c -5.32813,-3.42381 -9.6875,-6.84519 -9.6875,-7.60309 0,-0.75789 4.41395,-9.63655 9.80878,-19.73036 9.27142,-17.34697 16.91831,-32.04398 42.23032,-81.16488 35.38731,-68.6732 46.88426,-90.3125 47.98301,-90.3125 0.58172,0 2.13889,1.54687 3.46041,3.4375 2.825,4.04159 26.08952,45.29368 45.19883,80.1455 28.91501,52.73561 41.36588,75.14109 49.91784,89.82775 4.89545,8.40716 8.88815,16.00091 8.87266,16.875 -0.0311,1.75341 -19.01353,14.72069 -21.524,14.70345 -0.86506,-0.006 -9.44785,-15.22661 -19.07285,-33.82371 -9.625,-18.59712 -18.17929,-34.39134 -19.00953,-35.0983 -1.03442,-0.88082 -12.64025,-0.85487 -36.875,0.0825 -56.1007,2.16981 -58.2729,2.37002 -60.00757,5.53095 -0.81326,1.48191 -7.49381,16.1944 -14.84568,32.6944 -7.35186,16.5 -14.13093,30.14871 -15.06462,30.33046 -0.93368,0.18176 -6.05698,-2.47083 -11.3851,-5.89464 z m 105.73827,-80.86475 c 14.85918,-0.58727 21.22438,-1.28439 21.64104,-2.37018 0.66098,-1.72247 -34.98412,-69.67334 -36.88021,-70.30536 -0.6647,-0.22158 -2.67105,2.29879 -4.45854,5.6008 -7.29517,13.47631 -31.97806,65.53121 -31.97806,67.44005 0,1.83663 1.61986,1.96996 15.3125,1.26028 8.42187,-0.4365 24.78535,-1.16802 36.36327,-1.6256 z m 284.85066,79.20778 c -4.277,-4.31536 -7.7764,-8.46709 -7.7764,-9.22604 0,-0.75895 4.9219,-6.95512 10.9375,-13.76927 27.4149,-31.05405 59.7205,-69.47478 60.0469,-71.41328 0.2177,-1.29271 -11.9816,-16.64763 -30.9375,-38.94011 -17.2133,-20.24319 -31.2969,-37.20297 -31.2969,-37.68844 0,-1.68705 17.9251,-17.46772 19.4304,-17.10583 0.833,0.20026 8.625,9.53591 17.3156,20.74589 24.1213,31.11393 42.0981,53.31377 43.6193,53.86597 0.7542,0.27376 2.8086,-1.17465 4.5654,-3.2187 1.7569,-2.04404 15.7649,-18.58053 31.129,-36.74775 15.364,-18.16721 28.7152,-33.58573 29.6692,-34.26335 1.3072,-0.92855 3.7404,0.7561 9.8778,6.83889 4.4788,4.43902 8.1433,8.84226 8.1433,9.785 0,0.94273 -10.6043,12.77148 -23.5652,26.28611 -32.5732,33.96496 -43.9348,46.6137 -43.9348,48.9121 0,1.0812 9.7073,12.92199 21.5719,26.31287 36.6736,41.39164 49.6786,56.76722 49.666,58.71925 -0.013,1.9733 -16.4332,17.50283 -18.5069,17.50283 -0.6613,0 -7.5539,-7.94814 -15.3168,-17.66251 -24.7853,-31.01609 -53.7267,-65.45218 -55.2825,-65.7784 -0.8287,-0.17375 -16.6942,18.77609 -35.2567,42.11075 -18.5625,23.33466 -34.3287,42.46118 -35.0361,42.50341 -0.7074,0.0422 -4.7855,-3.45401 -9.0625,-7.76939 z m -125.50844,3.20093 c -0.12761,-0.53889 -0.26824,-39.22979 -0.3125,-85.97979 l -0.0805,-85 -18.75,-0.3229 c -10.3125,-0.1776 -27.09689,0.10587 -37.29865,0.63007 -10.20175,0.52414 -19.08536,0.62128 -19.74137,0.21584 -0.656,-0.40542 -1.02786,-5.47021 -0.82636,-11.25507 l 0.36639,-10.51794 6.875,0.36987 c 26.52581,1.42708 67.07366,2.24467 68.0312,1.37175 0.6359,-0.5797 1.63901,-21.41582 2.22914,-46.30247 l 1.07295,-45.24845 -4.34223,-4.47035 c -7.01279,-7.21971 -8.87532,-15.77184 -5.27001,-24.198 7.5437,-17.63076 32.7642,-17.63076 40.3079,0 3.51835,8.22287 1.74055,16.9566 -4.84045,23.77944 l -3.90816,4.0518 2.00444,45.80928 c 1.53578,35.09893 2.39438,46.05823 3.67232,46.87398 1.76439,1.12626 38.1112,0.27189 59.1679,-1.3908 6.875,-0.54288 12.9219,-0.73649 13.4375,-0.43028 0.51563,0.30623 0.93753,5.32998 0.93753,11.16392 l 0,10.60714 -38.94893,-0.88114 -38.94887,-0.88113 1.02105,73.63772 c 0.56157,40.50075 1.07295,79.26272 1.13638,86.13772 l 0.11538,12.5 -13.4375,0.35479 c -7.39063,0.19514 -13.54191,-0.0861 -13.66951,-0.625 z"
     id="path3346"
     inkscape:connector-curvature="0" />
</svg>
